<svg xmlns="http://www.w3.org/2000/svg" width="24" height="24" viewBox="0 0 24 24">
    <g fill="none" fill-rule="evenodd">
        <g stroke="#F09038" stroke-linecap="round" stroke-linejoin="round" stroke-width="2" transform="translate(1 2)">
            <path d="M0 10c0-3.7 1.8-7 4.7-9C5.7.3 7.4.1 8 1c1 1.2-.8 3 0 4 2 2.4 6.1-2.3 11 0 3.5 1.8 3 6.3 2.6 8-1.3 4.6-5.6 8-10.6 8-6.1 0-11-4.9-11-11z"/>
            <circle cx="16" cy="10" r="2"/>
            <circle cx="4" cy="10" r="1"/>
            <circle cx="6.5" cy="15" r="1"/>
            <circle cx="12" cy="17" r="1"/>
        </g>
    </g>
</svg>
