<svg xmlns="http://www.w3.org/2000/svg" width="24" height="24" viewBox="0 0 24 24">
    <g fill="none" fill-rule="evenodd">
        <path fill="#E65C65" fill-rule="nonzero" d="M17 1c3.852 0 7 3.148 7 7 0 1.623-.661 3.426-1.865 5.396-.984 1.61-2.31 3.298-3.898 5.03a59.963 59.963 0 0 1-3.846 3.814 58.309 58.309 0 0 1-1.758 1.534 1 1 0 0 1-1.266 0 58.309 58.309 0 0 1-1.758-1.534 59.963 59.963 0 0 1-3.846-3.814c-1.587-1.732-2.914-3.42-3.898-5.03C.661 11.426 0 9.623 0 8c0-3.852 3.148-7 7-7 1.917 0 3.688.79 5 2.13C13.312 1.79 15.083 1 17 1z"/>
        <path stroke="#FFF" stroke-linecap="round" stroke-linejoin="round" stroke-width="2" d="M7.5 5.085c-1.59.316-2.873 1.488-3.325 3"/>
    </g>
</svg>
