<svg xmlns="http://www.w3.org/2000/svg" xmlns:xlink="http://www.w3.org/1999/xlink" width="29" height="36" viewBox="0 0 29 36">
    <defs>
        <path id="a" d="M0 .372H28.41v26.75H0z"/>
        <path id="c" d="M0 .438H28.41V30H0z"/>
        <path id="e" d="M.536.968H22.41V24H.536z"/>
        <path id="g" d="M.165.696H15.41V17H.165z"/>
    </defs>
    <g fill="none" fill-rule="evenodd">
        <g transform="translate(0 -.372)">
            <mask id="b" fill="#fff">
                <use xlink:href="#a"/>
            </mask>
            <path fill="#AACC05" d="M25.596.372H2.813A2.813 2.813 0 0 0 0 3.184v23.938a28.847 28.847 0 0 1 4.32-9.208V4.691h19.77v1.131a29.746 29.746 0 0 1 4.094-.285l.225.003V3.184A2.812 2.812 0 0 0 25.596.372" mask="url(#b)"/>
        </g>
        <g transform="translate(0 5.628)">
            <mask id="d" fill="#fff">
                <use xlink:href="#c"/>
            </mask>
            <path fill="#F4A100" d="M28.184.438c-1.39 0-2.757.102-4.094.297-8.3 1.21-15.443 6.037-19.77 12.825A28.098 28.098 0 0 0 0 26.41v.777A2.813 2.813 0 0 0 2.813 30H5.68a22.708 22.708 0 0 1 .146-4.32c.635-4.91 2.856-9.45 6.415-13.008a22.376 22.376 0 0 1 11.85-6.234 22.794 22.794 0 0 1 4.094-.37l.225.003V.44c-.075-.002-.15-.004-.225-.004" mask="url(#d)"/>
        </g>
        <g transform="translate(6 11.628)">
            <mask id="f" fill="#fff">
                <use xlink:href="#e"/>
            </mask>
            <path fill="#F9BE00" d="M22.184.968c-1.399 0-2.768.135-4.094.39C9.047 3.096 1.99 10.477.736 19.68A21.727 21.727 0 0 0 .581 24h5.736a15.906 15.906 0 0 1 .24-4.32C7.718 13.69 12.248 8.887 18.09 7.33a15.89 15.89 0 0 1 4.32-.531V.97c-.076-.001-.15-.003-.226-.003" mask="url(#f)"/>
        </g>
        <g transform="translate(13 18.628)">
            <mask id="h" fill="#fff">
                <use xlink:href="#g"/>
            </mask>
            <path fill="#FED800" d="M15.184.696c-1.419 0-2.792.198-4.094.568C5.746 2.78 1.605 7.187.473 12.68A15.029 15.029 0 0 0 .221 17h12.375a2.812 2.812 0 0 0 2.813-2.813V.7l-.225-.003" mask="url(#h)"/>
        </g>
    </g>
</svg>
